<svg width="172" height="25" viewBox="0 0 172 25" fill="none" xmlns="http://www.w3.org/2000/svg">
<path d="M162.387 24.16C160.787 24.16 159.347 23.7973 158.067 23.072C156.809 22.3466 155.817 21.344 155.091 20.064C154.366 18.7626 154.003 17.2693 154.003 15.584C154.003 13.8773 154.366 12.384 155.091 11.104C155.817 9.82398 156.809 8.83198 158.067 8.12798C159.347 7.40265 160.787 7.03998 162.387 7.03998C163.859 7.03998 165.171 7.37065 166.323 8.03198C167.497 8.69332 168.425 9.66398 169.107 10.944C169.811 12.2027 170.163 13.7493 170.163 15.584C170.163 17.3973 169.822 18.944 169.139 20.224C168.457 21.504 167.529 22.4853 166.355 23.168C165.203 23.8293 163.881 24.16 162.387 24.16ZM162.547 22.144C163.742 22.144 164.809 21.8773 165.747 21.344C166.707 20.7893 167.454 20.0213 167.987 19.04C168.542 18.0373 168.819 16.8853 168.819 15.584C168.819 14.2613 168.542 13.1093 167.987 12.128C167.454 11.1466 166.707 10.3893 165.747 9.85598C164.809 9.30132 163.742 9.02398 162.547 9.02398C161.374 9.02398 160.318 9.30132 159.379 9.85598C158.441 10.3893 157.694 11.1466 157.139 12.128C156.585 13.1093 156.307 14.2613 156.307 15.584C156.307 16.8853 156.585 18.0373 157.139 19.04C157.694 20.0213 158.441 20.7893 159.379 21.344C160.318 21.8773 161.374 22.144 162.547 22.144ZM168.883 24V18.944L169.107 15.552L168.787 12.16V0.255981H171.059V24H168.883Z" fill="black"/>
<path d="M143.262 24V7.19998H145.438V11.776L145.214 10.976C145.683 9.69598 146.472 8.72531 147.582 8.06398C148.691 7.38131 150.067 7.03998 151.71 7.03998V9.24798C151.624 9.24798 151.539 9.24798 151.454 9.24798C151.368 9.22665 151.283 9.21598 151.198 9.21598C149.427 9.21598 148.04 9.75998 147.038 10.848C146.035 11.9146 145.534 13.44 145.534 15.424V24H143.262Z" fill="black"/>
<path d="M134.915 24V20.288L134.819 19.68V13.472C134.819 12.0426 134.413 10.944 133.603 10.176C132.813 9.40798 131.629 9.02398 130.051 9.02398C128.963 9.02398 127.928 9.20531 126.947 9.56798C125.965 9.93064 125.133 10.4106 124.451 11.008L123.427 9.31198C124.28 8.58665 125.304 8.03198 126.499 7.64798C127.693 7.24264 128.952 7.03998 130.275 7.03998C132.451 7.03998 134.125 7.58398 135.299 8.67198C136.493 9.73865 137.091 11.3706 137.091 13.568V24H134.915ZM129.123 24.16C127.864 24.16 126.765 23.9573 125.827 23.552C124.909 23.1253 124.205 22.5493 123.715 21.824C123.224 21.0773 122.979 20.224 122.979 19.264C122.979 18.3893 123.181 17.6 123.587 16.896C124.013 16.1706 124.696 15.5946 125.635 15.168C126.595 14.72 127.875 14.496 129.475 14.496H135.267V16.192H129.539C127.917 16.192 126.787 16.48 126.147 17.056C125.528 17.632 125.219 18.3466 125.219 19.2C125.219 20.16 125.592 20.928 126.339 21.504C127.085 22.08 128.131 22.368 129.475 22.368C130.755 22.368 131.853 22.08 132.771 21.504C133.709 20.9066 134.392 20.0533 134.819 18.944L135.331 20.512C134.904 21.6213 134.157 22.5066 133.091 23.168C132.045 23.8293 130.723 24.16 129.123 24.16Z" fill="black"/>
<path d="M111.266 24.16C109.645 24.16 108.183 23.7973 106.882 23.072C105.602 22.3253 104.589 21.312 103.842 20.032C103.095 18.7306 102.722 17.248 102.722 15.584C102.722 13.8986 103.095 12.416 103.842 11.136C104.589 9.85598 105.602 8.85331 106.882 8.12798C108.162 7.40264 109.623 7.03998 111.266 7.03998C112.93 7.03998 114.402 7.40264 115.682 8.12798C116.983 8.85331 117.997 9.85598 118.722 11.136C119.469 12.416 119.842 13.8986 119.842 15.584C119.842 17.248 119.469 18.7306 118.722 20.032C117.997 21.312 116.983 22.3253 115.682 23.072C114.381 23.7973 112.909 24.16 111.266 24.16ZM111.266 22.144C112.482 22.144 113.559 21.8773 114.498 21.344C115.437 20.7893 116.173 20.0213 116.706 19.04C117.261 18.0373 117.538 16.8853 117.538 15.584C117.538 14.2613 117.261 13.1093 116.706 12.128C116.173 11.1466 115.437 10.3893 114.498 9.85598C113.559 9.30131 112.493 9.02398 111.298 9.02398C110.103 9.02398 109.037 9.30131 108.098 9.85598C107.159 10.3893 106.413 11.1466 105.858 12.128C105.303 13.1093 105.026 14.2613 105.026 15.584C105.026 16.8853 105.303 18.0373 105.858 19.04C106.413 20.0213 107.159 20.7893 108.098 21.344C109.037 21.8773 110.093 22.144 111.266 22.144Z" fill="black"/>
<path d="M91.4025 24.16C89.9305 24.16 88.6078 23.8293 87.4345 23.168C86.2611 22.4853 85.3331 21.504 84.6505 20.224C83.9678 18.944 83.6265 17.3973 83.6265 15.584C83.6265 13.7493 83.9678 12.2027 84.6505 10.944C85.3545 9.66398 86.2931 8.69332 87.4665 8.03198C88.6398 7.37065 89.9518 7.03998 91.4025 7.03998C93.0025 7.03998 94.4318 7.40265 95.6905 8.12798C96.9705 8.83198 97.9731 9.82398 98.6985 11.104C99.4238 12.384 99.7865 13.8773 99.7865 15.584C99.7865 17.2693 99.4238 18.7626 98.6985 20.064C97.9731 21.344 96.9705 22.3466 95.6905 23.072C94.4318 23.7973 93.0025 24.16 91.4025 24.16ZM82.7305 24V0.255981H85.0025V12.16L84.6825 15.552L84.9065 18.944V24H82.7305ZM91.2425 22.144C92.4371 22.144 93.5038 21.8773 94.4425 21.344C95.3811 20.7893 96.1278 20.0213 96.6825 19.04C97.2371 18.0373 97.5145 16.8853 97.5145 15.584C97.5145 14.2613 97.2371 13.1093 96.6825 12.128C96.1278 11.1466 95.3811 10.3893 94.4425 9.85598C93.5038 9.30132 92.4371 9.02398 91.2425 9.02398C90.0478 9.02398 88.9705 9.30132 88.0105 9.85598C87.0718 10.3893 86.3251 11.1466 85.7705 12.128C85.2371 13.1093 84.9705 14.2613 84.9705 15.584C84.9705 16.8853 85.2371 18.0373 85.7705 19.04C86.3251 20.0213 87.0718 20.7893 88.0105 21.344C88.9705 21.8773 90.0478 22.144 91.2425 22.144Z" fill="black"/>
<path d="M69.6815 7.03998C71.0468 7.03998 72.2415 7.30665 73.2655 7.83998C74.3108 8.35198 75.1215 9.14132 75.6975 10.208C76.2948 11.2746 76.5935 12.6186 76.5935 14.24V24H74.3215V14.464C74.3215 12.6933 73.8735 11.36 72.9775 10.464C72.1028 9.54665 70.8655 9.08798 69.2655 9.08798C68.0708 9.08798 67.0255 9.33332 66.1295 9.82398C65.2548 10.2933 64.5721 10.9866 64.0815 11.904C63.6121 12.8 63.3775 13.888 63.3775 15.168V24H61.1055V0.255981H63.3775V11.808L62.9295 10.944C63.4628 9.72798 64.3161 8.77865 65.4895 8.09598C66.6628 7.39198 68.0601 7.03998 69.6815 7.03998Z" fill="black"/>
<path d="M49.9925 24.16C48.6059 24.16 47.2939 23.968 46.0565 23.584C44.8192 23.1786 43.8485 22.6773 43.1445 22.08L44.1685 20.288C44.8512 20.8 45.7259 21.248 46.7925 21.632C47.8592 21.9946 48.9792 22.176 50.1525 22.176C51.7525 22.176 52.9045 21.9306 53.6085 21.44C54.3125 20.928 54.6645 20.256 54.6645 19.424C54.6645 18.8053 54.4619 18.3253 54.0565 17.984C53.6725 17.6213 53.1605 17.3546 52.5205 17.184C51.8805 16.992 51.1659 16.832 50.3765 16.704C49.5872 16.576 48.7979 16.4266 48.0085 16.256C47.2405 16.0853 46.5365 15.84 45.8965 15.52C45.2565 15.1786 44.7339 14.72 44.3285 14.144C43.9445 13.568 43.7525 12.8 43.7525 11.84C43.7525 10.9226 44.0085 10.1013 44.5205 9.37598C45.0325 8.65065 45.7792 8.08531 46.7605 7.67998C47.7632 7.25331 48.9792 7.03998 50.4085 7.03998C51.4965 7.03998 52.5845 7.18931 53.6725 7.48798C54.7605 7.76531 55.6565 8.13864 56.3605 8.60798L55.3685 10.432C54.6219 9.91998 53.8219 9.55731 52.9685 9.34398C52.1152 9.10931 51.2619 8.99198 50.4085 8.99198C48.8939 8.99198 47.7739 9.25865 47.0485 9.79198C46.3445 10.304 45.9925 10.9653 45.9925 11.776C45.9925 12.416 46.1845 12.9173 46.5685 13.28C46.9739 13.6426 47.4965 13.9306 48.1365 14.144C48.7979 14.336 49.5125 14.496 50.2805 14.624C51.0699 14.752 51.8485 14.912 52.6165 15.104C53.4059 15.2746 54.1205 15.52 54.7605 15.84C55.4219 16.1386 55.9445 16.576 56.3285 17.152C56.7339 17.7066 56.9365 18.4426 56.9365 19.36C56.9365 20.3413 56.6592 21.1946 56.1045 21.92C55.5712 22.624 54.7819 23.1786 53.7365 23.584C52.7125 23.968 51.4645 24.16 49.9925 24.16Z" fill="black"/>
<path d="M37.1335 24V20.288L37.0375 19.68V13.472C37.0375 12.0426 36.6322 10.944 35.8215 10.176C35.0322 9.40798 33.8482 9.02398 32.2695 9.02398C31.1815 9.02398 30.1468 9.20531 29.1655 9.56798C28.1842 9.93064 27.3522 10.4106 26.6695 11.008L25.6455 9.31198C26.4988 8.58665 27.5228 8.03198 28.7175 7.64798C29.9122 7.24264 31.1708 7.03998 32.4935 7.03998C34.6695 7.03998 36.3442 7.58398 37.5175 8.67198C38.7122 9.73865 39.3095 11.3706 39.3095 13.568V24H37.1335ZM31.3415 24.16C30.0828 24.16 28.9842 23.9573 28.0455 23.552C27.1282 23.1253 26.4242 22.5493 25.9335 21.824C25.4428 21.0773 25.1975 20.224 25.1975 19.264C25.1975 18.3893 25.4002 17.6 25.8055 16.896C26.2322 16.1706 26.9148 15.5946 27.8535 15.168C28.8135 14.72 30.0935 14.496 31.6935 14.496H37.4855V16.192H31.7575C30.1362 16.192 29.0055 16.48 28.3655 17.056C27.7468 17.632 27.4375 18.3466 27.4375 19.2C27.4375 20.16 27.8108 20.928 28.5575 21.504C29.3042 22.08 30.3495 22.368 31.6935 22.368C32.9735 22.368 34.0722 22.08 34.9895 21.504C35.9282 20.9066 36.6108 20.0533 37.0375 18.944L37.5495 20.512C37.1228 21.6213 36.3762 22.5066 35.3095 23.168C34.2642 23.8293 32.9415 24.16 31.3415 24.16Z" fill="black"/>
<path d="M0.647949 24V1.60001H9.76795C12.1573 1.60001 14.2479 2.08001 16.0399 3.04001C17.8533 3.97867 19.2613 5.29067 20.264 6.97601C21.2666 8.66134 21.768 10.6027 21.768 12.8C21.768 14.9973 21.2666 16.9387 20.264 18.624C19.2613 20.3093 17.8533 21.632 16.0399 22.592C14.2479 23.5307 12.1573 24 9.76795 24H0.647949ZM3.01595 21.952H9.63995C11.624 21.952 13.3413 21.568 14.792 20.8C16.2639 20.0107 17.4053 18.9333 18.216 17.568C19.0266 16.1813 19.4319 14.592 19.4319 12.8C19.4319 10.9867 19.0266 9.39734 18.216 8.03201C17.4053 6.66667 16.2639 5.60001 14.792 4.83201C13.3413 4.04267 11.624 3.64801 9.63995 3.64801H3.01595V21.952Z" fill="black"/>
</svg>
