<svg width="96" height="19" viewBox="0 0 96 19" fill="none" xmlns="http://www.w3.org/2000/svg">
<path d="M94.3745 15V0.159996H95.7945V15H94.3745Z" fill="black"/>
<path d="M89.1576 15V12.68L89.0976 12.3V8.42C89.0976 7.52667 88.8443 6.84 88.3376 6.36C87.8443 5.88 87.1043 5.64 86.1176 5.64C85.4376 5.64 84.791 5.75333 84.1776 5.98C83.5643 6.20667 83.0443 6.50667 82.6176 6.88L81.9776 5.82C82.511 5.36667 83.151 5.02 83.8976 4.78C84.6443 4.52667 85.431 4.4 86.2576 4.4C87.6176 4.4 88.6643 4.74 89.3976 5.42C90.1443 6.08667 90.5176 7.10667 90.5176 8.48V15H89.1576ZM85.5376 15.1C84.751 15.1 84.0643 14.9733 83.4776 14.72C82.9043 14.4533 82.4643 14.0933 82.1576 13.64C81.851 13.1733 81.6976 12.64 81.6976 12.04C81.6976 11.4933 81.8243 11 82.0776 10.56C82.3443 10.1067 82.771 9.74667 83.3576 9.48C83.9576 9.2 84.7576 9.06 85.7576 9.06H89.3776V10.12H85.7976C84.7843 10.12 84.0776 10.3 83.6776 10.66C83.291 11.02 83.0976 11.4667 83.0976 12C83.0976 12.6 83.331 13.08 83.7976 13.44C84.2643 13.8 84.9176 13.98 85.7576 13.98C86.5576 13.98 87.2443 13.8 87.8176 13.44C88.4043 13.0667 88.831 12.5333 89.0976 11.84L89.4176 12.82C89.151 13.5133 88.6843 14.0667 88.0176 14.48C87.3643 14.8933 86.5376 15.1 85.5376 15.1Z" fill="black"/>
<path d="M71.8812 12.28L71.9212 10.46L78.4612 4.5H80.2012L75.5812 8.92L74.7812 9.6L71.8812 12.28ZM70.7612 15V0.159996H72.1812V15H70.7612ZM78.9012 15L74.5212 9.54L75.4412 8.44L80.6412 15H78.9012Z" fill="black"/>
<path d="M60.0014 18.98C59.5081 18.98 59.0347 18.9 58.5814 18.74C58.1414 18.58 57.7614 18.34 57.4414 18.02L58.1014 16.96C58.3681 17.2133 58.6547 17.4067 58.9614 17.54C59.2814 17.6867 59.6347 17.76 60.0214 17.76C60.4881 17.76 60.8881 17.6267 61.2214 17.36C61.5681 17.1067 61.8947 16.6533 62.2014 16L62.8814 14.46L63.0414 14.24L67.3614 4.5H68.7614L63.5014 16.26C63.2081 16.94 62.8814 17.48 62.5214 17.88C62.1747 18.28 61.7947 18.56 61.3814 18.72C60.9681 18.8933 60.5081 18.98 60.0014 18.98ZM62.8014 15.3L57.9614 4.5H59.4414L63.7214 14.14L62.8014 15.3Z" fill="black"/>
<path d="M54.8998 15V12.68L54.8398 12.3V8.42C54.8398 7.52667 54.5865 6.84 54.0798 6.36C53.5865 5.88 52.8465 5.64 51.8598 5.64C51.1798 5.64 50.5332 5.75333 49.9198 5.98C49.3065 6.20667 48.7865 6.50667 48.3598 6.88L47.7198 5.82C48.2532 5.36667 48.8932 5.02 49.6398 4.78C50.3865 4.52667 51.1732 4.4 51.9998 4.4C53.3598 4.4 54.4065 4.74 55.1398 5.42C55.8865 6.08667 56.2598 7.10667 56.2598 8.48V15H54.8998ZM51.2798 15.1C50.4932 15.1 49.8065 14.9733 49.2198 14.72C48.6465 14.4533 48.2065 14.0933 47.8998 13.64C47.5932 13.1733 47.4398 12.64 47.4398 12.04C47.4398 11.4933 47.5665 11 47.8198 10.56C48.0865 10.1067 48.5132 9.74667 49.0998 9.48C49.6998 9.2 50.4998 9.06 51.4998 9.06H55.1198V10.12H51.5398C50.5265 10.12 49.8198 10.3 49.4198 10.66C49.0332 11.02 48.8398 11.4667 48.8398 12C48.8398 12.6 49.0732 13.08 49.5398 13.44C50.0065 13.8 50.6598 13.98 51.4998 13.98C52.2998 13.98 52.9865 13.8 53.5598 13.44C54.1465 13.0667 54.5732 12.5333 54.8398 11.84L55.1598 12.82C54.8932 13.5133 54.4265 14.0667 53.7598 14.48C53.1065 14.8933 52.2798 15.1 51.2798 15.1Z" fill="black"/>
<path d="M42.5903 1H44.0503V15H42.5903V1ZM33.8303 15H32.3503V1H33.8303V15ZM42.7303 8.54H33.6703V7.24H42.7303V8.54Z" fill="black"/>
<path d="M21.6807 10.8L21.4007 1H23.0807L22.7807 10.8H21.6807ZM22.2407 15.1C21.9473 15.1 21.694 15 21.4807 14.8C21.2807 14.5867 21.1807 14.34 21.1807 14.06C21.1807 13.7667 21.2807 13.5267 21.4807 13.34C21.694 13.14 21.9473 13.04 22.2407 13.04C22.5473 13.04 22.794 13.14 22.9807 13.34C23.1807 13.5267 23.2807 13.7667 23.2807 14.06C23.2807 14.34 23.1807 14.5867 22.9807 14.8C22.794 15 22.5473 15.1 22.2407 15.1Z" fill="black"/>
<path d="M16.2496 15V4.5H17.6696V15H16.2496ZM16.9696 2.18C16.6762 2.18 16.4296 2.08 16.2296 1.88C16.0296 1.68 15.9296 1.44 15.9296 1.16C15.9296 0.879996 16.0296 0.646663 16.2296 0.459996C16.4296 0.259996 16.6762 0.159996 16.9696 0.159996C17.2629 0.159996 17.5096 0.25333 17.7096 0.439996C17.9096 0.626663 18.0096 0.859996 18.0096 1.14C18.0096 1.43333 17.9096 1.68 17.7096 1.88C17.5229 2.08 17.2762 2.18 16.9696 2.18Z" fill="black"/>
<path d="M10.52 1H11.98V15H10.52V1ZM1.76003 15H0.280029V1H1.76003V15ZM10.66 8.54H1.60003V7.24H10.66V8.54Z" fill="black"/>
</svg>
